<?xml version="1.0" encoding="UTF-8"?>
<svg width="148px" height="48px" viewBox="0 0 148 48" version="1.1" xmlns="http://www.w3.org/2000/svg" xmlns:xlink="http://www.w3.org/1999/xlink">
    <title>1072930B-30A6-4F97-9494-10A6D8DD8291</title>
    <g id="Admin-Dashboard" stroke="none" stroke-width="1" fill="none" fill-rule="evenodd">
        <g id="1ai---Benchmark-Admin-Login" transform="translate(-108.000000, -80.000000)">
            <g id="Brand/Logomarks/Horizontal/Tagline-Color" transform="translate(108.000000, 80.000000)">
                <path d="M2.30141563,47.8641052 L2.30141563,42.4169869 L4.36864196,47.8641052 L5.05038681,47.8641052 L7.11761314,42.4169869 L7.11761314,47.8641052 L8.69002466,47.8641052 L8.69002466,40.3106168 L6.49084771,40.3106168 L4.70951439,45.0329626 L2.92818106,40.3106168 L0.74,40.3106168 L0.74,47.8641052 L2.30141563,47.8641052 Z M11.6041189,47.8641052 L12.0659461,46.5844287 L15.2107691,46.5844287 L15.6725963,47.8641052 L17.4429337,47.8641052 L14.6169913,40.3106168 L12.6597238,40.3106168 L9.83378147,47.8641052 L11.6041189,47.8641052 Z M14.7819296,45.1688574 L12.4947856,45.1688574 L13.6383576,41.9187058 L14.7819296,45.1688574 Z M20.1481062,47.8641052 L20.1481062,45.5425683 L20.7198922,44.8291203 L22.9410609,47.8641052 L24.8653407,47.8641052 L21.7535053,43.8552073 L24.6674148,40.3106168 L22.7431349,40.3106168 L20.1481062,43.6740142 L20.1481062,40.3106168 L18.5866905,40.3106168 L18.5866905,47.8641052 L20.1481062,47.8641052 Z M27.6035008,47.8641052 L27.6035008,40.3106168 L26.0420852,40.3106168 L26.0420852,47.8641052 L27.6035008,47.8641052 Z M31.0783852,47.8641052 L31.0783852,42.9379171 L34.5750765,47.8641052 L36.0815127,47.8641052 L36.0815127,40.3106168 L34.5200971,40.3106168 L34.5200971,45.0556117 L31.1223687,40.3106168 L29.5169695,40.3106168 L29.5169695,47.8641052 L31.0783852,47.8641052 Z M41.5576481,48 C42.8771543,48 43.9217633,47.4450961 44.6694835,46.5844287 L44.6694835,43.6853387 L41.1727922,43.6853387 L41.1727922,45.0895854 L43.1080679,45.0895854 L43.1080679,45.9955511 C42.811179,46.2786653 42.2064053,46.5731041 41.5576481,46.5731041 C40.2161502,46.5731041 39.2485123,45.5199191 39.2485123,44.0930233 C39.2485123,42.6661274 40.2161502,41.6129424 41.5576481,41.6129424 C42.3273601,41.6129424 42.9541255,42.0659252 43.2949979,42.59818 L44.5815164,41.8734075 C44.0317222,40.9787664 43.0750802,40.1860465 41.5576481,40.1860465 C39.4024547,40.1860465 37.6431132,41.7035389 37.6431132,44.0930233 C37.6431132,46.471183 39.4024547,48 41.5576481,48 Z M53.2246514,48 C54.8300506,48 55.7647008,47.0827098 56.2815074,46.1427705 L54.9400095,45.4746208 C54.6321247,46.0861476 53.9723716,46.5731041 53.2246514,46.5731041 C51.8831535,46.5731041 50.9155156,45.5199191 50.9155156,44.0930233 C50.9155156,42.6661274 51.8831535,41.6129424 53.2246514,41.6129424 C53.9723716,41.6129424 54.6321247,42.0998989 54.9400095,42.7114257 L56.2815074,42.0319515 C55.7647008,41.0806876 54.8300506,40.1860465 53.2246514,40.1860465 C51.0144786,40.1860465 49.3101165,41.7601618 49.3101165,44.0930233 C49.3101165,46.4145602 51.0144786,48 53.2246514,48 Z M61.163865,48 C63.3740378,48 64.9904329,46.3692619 64.9904329,44.0930233 C64.9904329,41.8167846 63.3740378,40.1860465 61.163865,40.1860465 C58.9426963,40.1860465 57.3263012,41.8167846 57.3263012,44.0930233 C57.3263012,46.3692619 58.9426963,48 61.163865,48 Z M61.163865,46.5731041 C59.8003753,46.5731041 58.9317004,45.49727 58.9317004,44.0930233 C58.9317004,42.677452 59.8003753,41.6129424 61.163865,41.6129424 C62.5163588,41.6129424 63.3850337,42.677452 63.3850337,44.0930233 C63.3850337,45.49727 62.5163588,46.5731041 61.163865,46.5731041 Z M68.113449,47.8641052 L68.113449,42.4169869 L70.1806753,47.8641052 L70.8624201,47.8641052 L72.9296465,42.4169869 L72.9296465,47.8641052 L74.502058,47.8641052 L74.502058,40.3106168 L72.302881,40.3106168 L70.5215477,45.0329626 L68.7402144,40.3106168 L66.5520333,40.3106168 L66.5520333,47.8641052 L68.113449,47.8641052 Z M77.9769424,47.8641052 L77.9769424,45.1688574 L79.8462428,45.1688574 C81.4296502,45.1688574 82.309321,44.0590495 82.309321,42.7453994 C82.309321,41.4204247 81.4406461,40.3106168 79.8462428,40.3106168 L76.4155267,40.3106168 L76.4155267,47.8641052 L77.9769424,47.8641052 Z M79.6263251,43.7532861 L77.9769424,43.7532861 L77.9769424,41.7261881 L79.6263251,41.7261881 C80.2420946,41.7261881 80.7149177,42.1112235 80.7149177,42.7453994 C80.7149177,43.3682508 80.2420946,43.7532861 79.6263251,43.7532861 Z M88.3572424,47.8641052 L88.3572424,46.4485339 L85.2564029,46.4485339 L85.2564029,40.3106168 L83.6839913,40.3106168 L83.6839913,47.8641052 L88.3572424,47.8641052 Z M95.0649168,47.8641052 L95.0649168,46.4485339 L91.4362749,46.4485339 L91.4362749,44.7271992 L94.9879457,44.7271992 L94.9879457,43.3116279 L91.4362749,43.3116279 L91.4362749,41.7261881 L95.0649168,41.7261881 L95.0649168,40.3106168 L89.8748593,40.3106168 L89.8748593,47.8641052 L95.0649168,47.8641052 Z M97.8470605,47.8641052 L99.6943691,45.10091 L101.530682,47.8641052 L103.399982,47.8641052 L100.738978,43.9797776 L103.235044,40.3106168 L101.354748,40.3106168 L99.6943691,42.8926188 L98.0119988,40.3106168 L96.1536942,40.3106168 L98.6497601,43.9911021 L95.988756,47.8641052 L97.8470605,47.8641052 Z M110.45971,48 C112.427973,48 113.395611,46.9581395 113.395611,45.576542 C113.395611,42.756724 109.184187,43.5607685 109.184187,42.3716886 C109.184187,41.9187058 109.558047,41.6242669 110.2178,41.6242669 C110.965521,41.6242669 111.757224,41.8847321 112.351002,42.4509606 L113.219677,41.2505561 C112.493949,40.5597573 111.526311,40.1973711 110.360747,40.1973711 C108.634393,40.1973711 107.578788,41.2392315 107.578788,42.4962588 C107.578788,45.338726 111.801208,44.4214358 111.801208,45.7350859 C111.801208,46.1767442 111.39436,46.5731041 110.525685,46.5731041 C109.514064,46.5731041 108.711364,46.0974722 108.194558,45.5425683 L107.336879,46.7995956 C108.029619,47.5130435 109.041241,48 110.45971,48 Z M116.463648,47.8641052 L116.463648,40.3106168 L114.902232,40.3106168 L114.902232,47.8641052 L116.463648,47.8641052 Z M119.938532,47.8641052 L119.938532,42.4169869 L122.005758,47.8641052 L122.687503,47.8641052 L124.75473,42.4169869 L124.75473,47.8641052 L126.327141,47.8641052 L126.327141,40.3106168 L124.127964,40.3106168 L122.346631,45.0329626 L120.565298,40.3106168 L118.377116,40.3106168 L118.377116,47.8641052 L119.938532,47.8641052 Z M129.802026,47.8641052 L129.802026,45.1688574 L131.671326,45.1688574 C133.254733,45.1688574 134.134404,44.0590495 134.134404,42.7453994 C134.134404,41.4204247 133.265729,40.3106168 131.671326,40.3106168 L128.24061,40.3106168 L128.24061,47.8641052 L129.802026,47.8641052 Z M131.451408,43.7532861 L129.802026,43.7532861 L129.802026,41.7261881 L131.451408,41.7261881 C132.067178,41.7261881 132.540001,42.1112235 132.540001,42.7453994 C132.540001,43.3682508 132.067178,43.7532861 131.451408,43.7532861 Z M140.182326,47.8641052 L140.182326,46.4485339 L137.081486,46.4485339 L137.081486,40.3106168 L135.509075,40.3106168 L135.509075,47.8641052 L140.182326,47.8641052 Z M146.89,47.8641052 L146.89,46.4485339 L143.261358,46.4485339 L143.261358,44.7271992 L146.813029,44.7271992 L146.813029,43.3116279 L143.261358,43.3116279 L143.261358,41.7261881 L146.89,41.7261881 L146.89,40.3106168 L141.699942,40.3106168 L141.699942,47.8641052 L146.89,47.8641052 Z" id="MAKINGCOMPLEXSIMPLE" fill="#B4B4B4" fill-rule="nonzero"></path>
                <path d="M12.2418329,9.30232558 C16.3596908,9.30232558 19.7491639,10.9399777 21.7849169,13.913489 L21.7849169,13.913489 L22.2972695,14.661952 L19.7905494,16.5279206 L19.2363974,15.7383606 C17.6993397,13.5490128 15.2807707,12.3916556 12.2418329,12.3916556 C7.11085778,12.3916556 3.2421406,16.3423616 3.2421406,21.5816029 C3.2421406,26.8204291 7.11085778,30.7715502 12.2418329,30.7715502 C15.3229839,30.7715502 17.8988178,29.5137338 19.4950568,27.2305686 L19.4950568,27.2305686 L20.037207,26.4551227 L22.57,28.2575778 L22.0439902,29.0226457 C19.9300185,32.0974465 16.3572077,33.8604651 12.2418329,33.8604651 C5.2629949,33.8604651 0,28.5817873 0,21.5816029 C0,14.5814185 5.2629949,9.30232558 12.2418329,9.30232558 Z M55.5,18.2325581 L55.5,33.5624815 L52.4402972,33.5624815 L52.4370125,32.3236915 C51.2315257,33.3273826 49.7094755,33.8604651 47.9772041,33.8604651 C43.6175792,33.8604651 40.33,30.4987985 40.33,26.0401409 C40.33,21.5818944 43.6175792,18.2325581 47.9772041,18.2325581 L47.9772041,18.2325581 L55.5,18.2325581 Z M114.953305,18.2325581 C119.2324,18.2325581 122.008794,21.5547268 122.1,26.3273505 L109.081098,26.3273505 C109.217707,30.257867 111.85789,32.6441789 115.271927,32.6441789 C117.866706,32.6441789 119.323208,31.7083221 120.461485,30.257867 L121.37155,31.0999743 C120.051658,32.8312683 118.048719,33.8604651 115.271927,33.8604651 C110.810818,33.8604651 107.67,30.4449564 107.67,26.0465116 C107.67,21.6484762 110.947427,18.2325581 114.953305,18.2325581 Z M77.1452091,9.30232558 C80.4882025,9.30232558 83.5995488,10.5383304 85.9064024,12.7829383 C88.2496338,15.0627541 89.54,18.1871456 89.54,21.5811882 C89.54,24.9752309 88.2496338,28.1000366 85.9064024,30.3798524 C83.5995488,32.6244603 80.4882025,33.8604651 77.1452091,33.8604651 C73.8017975,33.8604651 70.6904512,32.6244603 68.3840157,30.3798524 C66.0403662,28.1000366 64.75,24.9752309 64.75,21.5811882 C64.75,18.1871456 66.0403662,15.0627541 68.3840157,12.7829383 C70.6904512,10.5383304 73.8017975,9.30232558 77.1452091,9.30232558 Z M27.9972384,11.1627907 L27.9972384,19.5910937 C29.1713924,18.654707 30.680233,18.1350864 32.3519743,18.1350864 C36.0174502,18.1350864 38.48,20.6628368 38.48,24.425663 L38.48,24.425663 L38.48,33.4883721 L35.2727616,33.4883721 L35.2727616,24.658114 C35.2727616,21.1536581 32.9460328,21.1536581 32.1814576,21.1536581 C29.6004346,21.1536581 27.9972384,22.751193 27.9972384,25.3221422 L27.9972384,25.3221422 L27.9972384,33.4883721 L24.79,33.4883721 L24.79,11.1627907 L27.9972384,11.1627907 Z M61.79,18.2325581 L61.79,33.4883721 L58.83,33.4883721 L58.83,18.2325581 L61.79,18.2325581 Z M99.5281909,18.2325581 C99.5344393,18.233377 99.5402712,18.2325581 99.5465196,18.2325581 C101.091122,18.2325581 102.487846,18.6465041 103.53466,19.5128837 C104.714773,20.4894032 105.45,22.04037 105.45,24.2226966 L105.45,24.2226966 L105.45,33.4883721 L104.022034,33.4883721 L104.022034,24.456488 C104.022034,21.2001947 102.54783,19.6823927 99.9968203,19.5128837 L99.9968203,19.5128837 L93.9287989,19.5128837 L93.9287989,33.4883721 L92.5,33.4883721 L92.5,18.2325581 L99.5281909,18.2325581 Z M77.1452091,10.5594551 C70.8823754,10.5594551 66.1595348,15.2976116 66.1595348,21.5811882 C66.1595348,27.8647649 70.8823754,32.6033356 77.1452091,32.6033356 C83.4080427,32.6033356 88.1304652,27.8647649 88.1304652,21.5811882 C88.1304652,15.2976116 83.4080427,10.5594551 77.1452091,10.5594551 Z M52.4370125,21.1593742 L48.0170312,21.1593742 L47.9238276,21.1601962 C45.2788188,21.1860899 43.4311722,23.1930612 43.4311722,26.0401409 C43.4311722,28.9143474 45.30058,30.9217297 47.9772041,30.9217297 C50.2970271,30.9217297 52.0403843,29.4120829 52.4370125,27.0693148 L52.4370125,27.0693148 L52.4370125,21.1593742 Z M114.953305,19.4492538 C111.766685,19.4492538 109.490926,21.8355657 109.126502,25.1106549 L120.688902,25.1106549 C120.324876,21.9289057 118.549354,19.4492538 114.953305,19.4492538 Z M139.377818,0 L139.377818,5.10049504 L137.369006,5.10049504 C134.015638,5.10049504 131.287042,7.81985712 131.287042,11.1627907 L131.287042,11.1627907 L131.287042,17.2250864 L137.369006,17.2250864 C139.350672,17.2250864 141.195785,16.2489366 142.32564,14.6672543 L142.32564,14.6672543 L148,14.6672543 L147.979435,14.7275206 C146.438687,19.2720899 142.174691,22.3255814 137.369006,22.3255814 L137.369006,22.3255814 L126.17,22.3255814 L126.17,11.1627907 C126.17,5.00743079 131.194088,0 137.369006,0 L137.369006,0 L139.377818,0 Z M60.3101896,13.0232558 C61.3300687,13.0232558 62.16,13.8578819 62.16,14.8839116 C62.16,15.9270989 61.347509,16.744186 60.3101896,16.744186 C59.2728702,16.744186 58.46,15.9270989 58.46,14.8839116 C58.46,13.8578819 59.2899313,13.0232558 60.3101896,13.0232558 Z M148,0 L148,13.3953488 L142.733201,13.3953488 L142.733201,5.12766445 L140.6,5.12766445 L140.6,0 L148,0 Z" id="c1-logo-horizontal" fill="#0073A0"></path>
            </g>
        </g>
    </g>
</svg>